<svg version="1.1" id="Belarus" xmlns="http://www.w3.org/2000/svg" xmlns:xlink="http://www.w3.org/1999/xlink" x="0px" y="0px"
	 viewBox="0 0 550 490" style="enable-background:new 0 0 550 490;" xml:space="preserve">
	 
	 	
		<polygon fill = "#eeeeee" stroke = "#cccccc" stroke-width = "2" id="hrodnenskaia-voblasts" points="200,160 195,155 195,150 190,145 185,145 185,135 175,125 170,130 160,130 155,135 155,140 150,145 150,165 145,170 145,180 140,185 145,190 150,190 155,195 155,200 155,205 150,205 145,210 140,210 134.7,205 140,200 140,195 135,190 130,195 125,195 115,205 105,205 100,210 100,220 95,225 90,220 85,225 80,225 75,230 65,230 60,225 50,225 45,230 35,230 30,225 25,225 25,235 30,240 30,260 35,265 35,275 40,280 40,285 40,290 45,295 45,310 50,315 50,340 55,340 60,335 65,340 75,340 80,345 85,340 85,330 90,325 95,320 105,320 105,325 110,330 125,330 125,325 130,320 135,320 140,315 140,295 145,290 145,285 150,280 160,280 175,280 180,285 185,285 190,280 195,280 195,260 190,255 185,255 185,250 180,245 180,240 180,235 190,225 190,220 185,220 185,215 175,215 175,210 170,210 170,205 175,200 185,200 195,190 195,185 200,180 200,175 205,170 205,160"/>
		
		<polygon fill = "#eeeeee" stroke = "#cccccc" stroke-width = "2" id="vitsebskaia-voblasts" points="460,165 460,155 450,155 445,150 440,150 435,145 435,140 440,135 440,130 445,130 445,125 450,120 450,110 445,105 440,100 440,90 445,85 445,65 440,65 435,70 430,65 430,60 420,50 415,50 410,45 385,45 380,50 370,50 365,55 360,55 355,50 355,45 360,40 360,35 355,30 345,30 340,25 335,25 325,35 320,35 320,30 315,25 315,20 305,20 300,20 295,25 290,20 290,15 280,15 270,25 270,30 265,35 260,35 255,40 255,50 250,50 240,50 235,45 225,45 210,60 200,60 200,70 195,75 195,85 190,90 195,95 210,95 215,100 210,100 205,105 205,110 185,110 180,115 180,120 175,125 185,135 190,130 225,130 230,125 235,125 235,130 240,135 245,135 250,140 250,145 255,145 260,150 260,155 265,160 290,160 300,170 305,165 305,160 315,160 315,165 320,170 325,170 330,165 360,165 360,185 355,190 355,200 360,200 370,190 385,190 390,195 395,195 395,190 405,190 410,195 420,195 425,190 425,185 430,180 435,185 440,185 445,180 455,180 460,175 455,175 455,170"/>
		
		<polygon fill = "#eeeeee" stroke = "#cccccc" stroke-width = "2" id="mahiliouskaia-voblasts" points="540,270 530,260 530,250 525,245 520,245 515,240 500,240 495,240 490,235 495,230 495,215 490,215 485,210 480,210 470,200 465,200 465,195 465,180 460,175 455,180 445,180 440,185 435,185 430,180 425,185 425,190 420,195 410,195 405,190 395,190 395,195 390,195 385,190 370,190 360,200 360,215 355,220 355,235 360,240 360,250 350,250 345,255 340,255 335,260 330,260 330,265 325,260 315,260 305,270 300,270 300,280 305,285 300,290 285,290 285,295 290,300 299.5,300 305,305 310,305 310,315 305,320 305,325 300,330 300,335 295,340 300,345 325,345 325,340 330,335 330,330 340,330 345,325 360,325 365,320 375,320 370,315 370,305 375,305 380,300 380,295 375,290 380,285 385,285 390,285 395,290 400,290 400,295 410,295 420,285 425,285 430,290 450,290 450,300 455,305 470,305 475,300 485,300 490,300 500,310 515,310 525,300 545,280 545,270"/>
		
		<polygon fill = "#eeeeee" stroke = "#cccccc" stroke-width = "2" id="homelskaia-voblasts" points="490,395 490,390 480,380 480,365 485,360 480,355 480,350 480,340 475,335 475,330 465,320 465,315 470,310 470,305 455,305 450,300 450,290 430,290 425,285 420,285 410,295 400,295 400,290 395,290 390,285 380,285 375,290 380,295 380,300 375,305 370,305 370,315 375,320 365,320 360,325 355,325 345,325 340,330 330,330 330,335 325,340 325,345 305,345 305,350 300,355 300,365 295,370 285,370 280,365 275,365 275,370 260,370 255,365 255,360 250,360 240,370 240,375 235,380 240,385 245,385 250,390 250,405 255,410 255,415 250,420 250,430 250,450 260,450 260,460 265,460 270,455 280,455 290,445 295,445 295,450 300,455 305,455 315,455 315,465 320,470 325,470 325,460 330,455 335,455 340,450 340,445 345,445 345,455 350,460 350,470 360,470 370,460 375,460 380,465 390,465 395,460 400,460 410,470 410,475 420,485 425,480 425,460 420,455 420,450 425,445 425,440 430,435 430,425 445,410 445,405 455,405 460,410 465,410 465,405 470,400 480,400 485,405 495,405 495,400"/>
		
		<polygon fill = "#eeeeee" stroke = "#cccccc" stroke-width = "2" id="minskaia-voblasts" points="360,185 360,165 330,165 325,170 320,170 315,165 315,160 305,160 305,165 300,170 290,160 275,160 265,160 260,155 260,150 255,145 250,145 250,140 245,135 240,135 235,130 235,125 230,125 225,130 190,130 185,135 185,145 190,145 195,150 195,155 200,160 205,160 205,170 200,175 200,180 195,185 195,190 190,195 185,200 175,200 170,205 170,210 175,210 175,215 185,215 185,220 190,220 190,225 185,230 180,235 180,245 185,250 185,255 190,255 195,260 195,280 190,280 185,285 185,290 180,295 180,300 185.3,305 190,305 195,310 185,320 190,325 190,335 195,330 200,330 210,340 220,340 225,345 225,365 230,370 230,375 235,380 240,375 240,370 250,360 255,360 255,365 260,370 275,370 275,365 280,365 285,370 295,370 300,365 300,355 305,350 305,345 300,345 295,340 300,335 300,330 305,325 305,320 310,315 310,305 305,305 299.5,300 290,300 285,295 285,290 300,290 305,285 300,280 300,270 305,270 310,265 315,260 325,260 330,265 330,260 335,260 340,255 345,255 350,250 360,250 360,240 355,235 355,225 355,220 360,215 360,200 355,200 355,190"/>
		
		<polygon fill = "#eeeeee" stroke = "#cccccc" stroke-width = "2" id="brestskaia-voblasts" points="250,405 250,400 250,390 245,385 240,385 235,380 230,375 230,370 225,365 225,345 220,340 210,340 200,330 195,330 190,335 190,325 185,320 195,310 190,305 185.3,305 180,300 180,295 185,290 185,285 180,285 175,280 160,280 150,280 145,285 145,290 140,295 140,315 135,320 130,320 125,325 125,330 115,330 110,330 105,325 105,320 95,320 90,325 85,330 85,340 80,345 75,340 65,340 60,335 55,340 50,340 50,350 40,350 35,355 25,355 15,365 15,370 10,375 10,380 5,385 10,390 15,390 20,395 25,400 30,400 30,405 35,410 35,415 30,420 30,435 25,440 25,455 30,460 30,450 35,445 40,445 45,445 50,450 50,455 55,455 60,450 75,435 75,420 95,420 110,420 115,415 125,415 130,420 145,420 150,415 155,420 170,420 175,425 190,425 195,430 205,430 210,435 230,435 235,440 235,445 240,450 250,450 250,430 250,420 255,415 255,410"/>
			

		<polygon fill = "#cccccc" stroke = "#cccccc" stroke-width = "0.5" id = "horad-pinsk" points = "174.00,400.00,174.00,400.07,174.00,400.14,173.99,400.21,173.99,400.28,173.98,400.35,173.98,400.42,173.97,400.49,173.96,400.56,173.95,400.63,173.94,400.69,173.93,400.76,173.91,400.83,173.90,400.90,173.88,400.97,173.86,401.04,173.85,401.10,173.83,401.17,173.80,401.24,173.78,401.30,173.76,401.37,173.73,401.43,173.71,401.50,173.68,401.56,173.65,401.63,173.63,401.69,173.60,401.75,173.56,401.82,173.53,401.88,173.50,401.94,173.46,402.00,173.43,402.06,173.39,402.12,173.35,402.18,173.32,402.24,173.28,402.29,173.24,402.35,173.19,402.41,173.15,402.46,173.11,402.52,173.06,402.57,173.02,402.62,172.97,402.68,172.93,402.73,172.88,402.78,172.83,402.83,172.78,402.88,172.73,402.93,172.68,402.97,172.62,403.02,172.57,403.06,172.52,403.11,172.46,403.15,172.41,403.19,172.35,403.24,172.29,403.28,172.24,403.32,172.18,403.35,172.12,403.39,172.06,403.43,172.00,403.46,171.94,403.50,171.88,403.53,171.82,403.56,171.75,403.60,171.69,403.63,171.63,403.65,171.56,403.68,171.50,403.71,171.43,403.73,171.37,403.76,171.30,403.78,171.24,403.80,171.17,403.83,171.10,403.85,171.04,403.86,170.97,403.88,170.90,403.90,170.83,403.91,170.76,403.93,170.69,403.94,170.63,403.95,170.56,403.96,170.49,403.97,170.42,403.98,170.35,403.98,170.28,403.99,170.21,403.99,170.14,404.00,170.07,404.00,170.00,404.00,169.93,404.00,169.86,404.00,169.79,403.99,169.72,403.99,169.65,403.98,169.58,403.98,169.51,403.97,169.44,403.96,169.37,403.95,169.31,403.94,169.24,403.93,169.17,403.91,169.10,403.90,169.03,403.88,168.96,403.86,168.90,403.85,168.83,403.83,168.76,403.80,168.70,403.78,168.63,403.76,168.57,403.73,168.50,403.71,168.44,403.68,168.37,403.65,168.31,403.63,168.25,403.60,168.18,403.56,168.12,403.53,168.06,403.50,168.00,403.46,167.94,403.43,167.88,403.39,167.82,403.35,167.76,403.32,167.71,403.28,167.65,403.24,167.59,403.19,167.54,403.15,167.48,403.11,167.43,403.06,167.38,403.02,167.32,402.97,167.27,402.93,167.22,402.88,167.17,402.83,167.12,402.78,167.07,402.73,167.03,402.68,166.98,402.62,166.94,402.57,166.89,402.52,166.85,402.46,166.81,402.41,166.76,402.35,166.72,402.29,166.68,402.24,166.65,402.18,166.61,402.12,166.57,402.06,166.54,402.00,166.50,401.94,166.47,401.88,166.44,401.82,166.40,401.75,166.37,401.69,166.35,401.63,166.32,401.56,166.29,401.50,166.27,401.43,166.24,401.37,166.22,401.30,166.20,401.24,166.17,401.17,166.15,401.10,166.14,401.04,166.12,400.97,166.10,400.90,166.09,400.83,166.07,400.76,166.06,400.69,166.05,400.63,166.04,400.56,166.03,400.49,166.02,400.42,166.02,400.35,166.01,400.28,166.01,400.21,166.00,400.14,166.00,400.07,166.00,400.00,166.00,399.93,166.00,399.86,166.01,399.79,166.01,399.72,166.02,399.65,166.02,399.58,166.03,399.51,166.04,399.44,166.05,399.37,166.06,399.31,166.07,399.24,166.09,399.17,166.10,399.10,166.12,399.03,166.14,398.96,166.15,398.90,166.17,398.83,166.20,398.76,166.22,398.70,166.24,398.63,166.27,398.57,166.29,398.50,166.32,398.44,166.35,398.37,166.37,398.31,166.40,398.25,166.44,398.18,166.47,398.12,166.50,398.06,166.54,398.00,166.57,397.94,166.61,397.88,166.65,397.82,166.68,397.76,166.72,397.71,166.76,397.65,166.81,397.59,166.85,397.54,166.89,397.48,166.94,397.43,166.98,397.38,167.03,397.32,167.07,397.27,167.12,397.22,167.17,397.17,167.22,397.12,167.27,397.07,167.32,397.03,167.38,396.98,167.43,396.94,167.48,396.89,167.54,396.85,167.59,396.81,167.65,396.76,167.71,396.72,167.76,396.68,167.82,396.65,167.88,396.61,167.94,396.57,168.00,396.54,168.06,396.50,168.12,396.47,168.18,396.44,168.25,396.40,168.31,396.37,168.37,396.35,168.44,396.32,168.50,396.29,168.57,396.27,168.63,396.24,168.70,396.22,168.76,396.20,168.83,396.17,168.90,396.15,168.96,396.14,169.03,396.12,169.10,396.10,169.17,396.09,169.24,396.07,169.31,396.06,169.37,396.05,169.44,396.04,169.51,396.03,169.58,396.02,169.65,396.02,169.72,396.01,169.79,396.01,169.86,396.00,169.93,396.00,170.00,396.00,170.07,396.00,170.14,396.00,170.21,396.01,170.28,396.01,170.35,396.02,170.42,396.02,170.49,396.03,170.56,396.04,170.63,396.05,170.69,396.06,170.76,396.07,170.83,396.09,170.90,396.10,170.97,396.12,171.04,396.14,171.10,396.15,171.17,396.17,171.24,396.20,171.30,396.22,171.37,396.24,171.43,396.27,171.50,396.29,171.56,396.32,171.63,396.35,171.69,396.37,171.75,396.40,171.82,396.44,171.88,396.47,171.94,396.50,172.00,396.54,172.06,396.57,172.12,396.61,172.18,396.65,172.24,396.68,172.29,396.72,172.35,396.76,172.41,396.81,172.46,396.85,172.52,396.89,172.57,396.94,172.62,396.98,172.68,397.03,172.73,397.07,172.78,397.12,172.83,397.17,172.88,397.22,172.93,397.27,172.97,397.32,173.02,397.38,173.06,397.43,173.11,397.48,173.15,397.54,173.19,397.59,173.24,397.65,173.28,397.71,173.32,397.76,173.35,397.82,173.39,397.88,173.43,397.94,173.46,398.00,173.50,398.06,173.53,398.12,173.56,398.18,173.60,398.25,173.63,398.31,173.65,398.37,173.68,398.44,173.71,398.50,173.73,398.57,173.76,398.63,173.78,398.70,173.80,398.76,173.83,398.83,173.85,398.90,173.86,398.96,173.88,399.03,173.90,399.10,173.91,399.17,173.93,399.24,173.94,399.31,173.95,399.37,173.96,399.44,173.97,399.51,173.98,399.58,173.98,399.65,173.99,399.72,173.99,399.79,174.00,399.86,174.00,399.93"/>
		<polygon fill = "#cccccc" stroke = "#cccccc" stroke-width = "0.5" id = "horad-baranavichy" points = "169.00,305.00,169.00,305.07,169.00,305.14,168.99,305.21,168.99,305.28,168.98,305.35,168.98,305.42,168.97,305.49,168.96,305.56,168.95,305.63,168.94,305.69,168.93,305.76,168.91,305.83,168.90,305.90,168.88,305.97,168.86,306.04,168.85,306.10,168.83,306.17,168.80,306.24,168.78,306.30,168.76,306.37,168.73,306.43,168.71,306.50,168.68,306.56,168.65,306.63,168.63,306.69,168.60,306.75,168.56,306.82,168.53,306.88,168.50,306.94,168.46,307.00,168.43,307.06,168.39,307.12,168.35,307.18,168.32,307.24,168.28,307.29,168.24,307.35,168.19,307.41,168.15,307.46,168.11,307.52,168.06,307.57,168.02,307.62,167.97,307.68,167.93,307.73,167.88,307.78,167.83,307.83,167.78,307.88,167.73,307.93,167.68,307.97,167.62,308.02,167.57,308.06,167.52,308.11,167.46,308.15,167.41,308.19,167.35,308.24,167.29,308.28,167.24,308.32,167.18,308.35,167.12,308.39,167.06,308.43,167.00,308.46,166.94,308.50,166.88,308.53,166.82,308.56,166.75,308.60,166.69,308.63,166.63,308.65,166.56,308.68,166.50,308.71,166.43,308.73,166.37,308.76,166.30,308.78,166.24,308.80,166.17,308.83,166.10,308.85,166.04,308.86,165.97,308.88,165.90,308.90,165.83,308.91,165.76,308.93,165.69,308.94,165.63,308.95,165.56,308.96,165.49,308.97,165.42,308.98,165.35,308.98,165.28,308.99,165.21,308.99,165.14,309.00,165.07,309.00,165.00,309.00,164.93,309.00,164.86,309.00,164.79,308.99,164.72,308.99,164.65,308.98,164.58,308.98,164.51,308.97,164.44,308.96,164.37,308.95,164.31,308.94,164.24,308.93,164.17,308.91,164.10,308.90,164.03,308.88,163.96,308.86,163.90,308.85,163.83,308.83,163.76,308.80,163.70,308.78,163.63,308.76,163.57,308.73,163.50,308.71,163.44,308.68,163.37,308.65,163.31,308.63,163.25,308.60,163.18,308.56,163.12,308.53,163.06,308.50,163.00,308.46,162.94,308.43,162.88,308.39,162.82,308.35,162.76,308.32,162.71,308.28,162.65,308.24,162.59,308.19,162.54,308.15,162.48,308.11,162.43,308.06,162.38,308.02,162.32,307.97,162.27,307.93,162.22,307.88,162.17,307.83,162.12,307.78,162.07,307.73,162.03,307.68,161.98,307.62,161.94,307.57,161.89,307.52,161.85,307.46,161.81,307.41,161.76,307.35,161.72,307.29,161.68,307.24,161.65,307.18,161.61,307.12,161.57,307.06,161.54,307.00,161.50,306.94,161.47,306.88,161.44,306.82,161.40,306.75,161.37,306.69,161.35,306.63,161.32,306.56,161.29,306.50,161.27,306.43,161.24,306.37,161.22,306.30,161.20,306.24,161.17,306.17,161.15,306.10,161.14,306.04,161.12,305.97,161.10,305.90,161.09,305.83,161.07,305.76,161.06,305.69,161.05,305.63,161.04,305.56,161.03,305.49,161.02,305.42,161.02,305.35,161.01,305.28,161.01,305.21,161.00,305.14,161.00,305.07,161.00,305.00,161.00,304.93,161.00,304.86,161.01,304.79,161.01,304.72,161.02,304.65,161.02,304.58,161.03,304.51,161.04,304.44,161.05,304.37,161.06,304.31,161.07,304.24,161.09,304.17,161.10,304.10,161.12,304.03,161.14,303.96,161.15,303.90,161.17,303.83,161.20,303.76,161.22,303.70,161.24,303.63,161.27,303.57,161.29,303.50,161.32,303.44,161.35,303.37,161.37,303.31,161.40,303.25,161.44,303.18,161.47,303.12,161.50,303.06,161.54,303.00,161.57,302.94,161.61,302.88,161.65,302.82,161.68,302.76,161.72,302.71,161.76,302.65,161.81,302.59,161.85,302.54,161.89,302.48,161.94,302.43,161.98,302.38,162.03,302.32,162.07,302.27,162.12,302.22,162.17,302.17,162.22,302.12,162.27,302.07,162.32,302.03,162.38,301.98,162.43,301.94,162.48,301.89,162.54,301.85,162.59,301.81,162.65,301.76,162.71,301.72,162.76,301.68,162.82,301.65,162.88,301.61,162.94,301.57,163.00,301.54,163.06,301.50,163.12,301.47,163.18,301.44,163.25,301.40,163.31,301.37,163.37,301.35,163.44,301.32,163.50,301.29,163.57,301.27,163.63,301.24,163.70,301.22,163.76,301.20,163.83,301.17,163.90,301.15,163.96,301.14,164.03,301.12,164.10,301.10,164.17,301.09,164.24,301.07,164.31,301.06,164.37,301.05,164.44,301.04,164.51,301.03,164.58,301.02,164.65,301.02,164.72,301.01,164.79,301.01,164.86,301.00,164.93,301.00,165.00,301.00,165.07,301.00,165.14,301.00,165.21,301.01,165.28,301.01,165.35,301.02,165.42,301.02,165.49,301.03,165.56,301.04,165.63,301.05,165.69,301.06,165.76,301.07,165.83,301.09,165.90,301.10,165.97,301.12,166.04,301.14,166.10,301.15,166.17,301.17,166.24,301.20,166.30,301.22,166.37,301.24,166.43,301.27,166.50,301.29,166.56,301.32,166.63,301.35,166.69,301.37,166.75,301.40,166.82,301.44,166.88,301.47,166.94,301.50,167.00,301.54,167.06,301.57,167.12,301.61,167.18,301.65,167.24,301.68,167.29,301.72,167.35,301.76,167.41,301.81,167.46,301.85,167.52,301.89,167.57,301.94,167.62,301.98,167.68,302.03,167.73,302.07,167.78,302.12,167.83,302.17,167.88,302.22,167.93,302.27,167.97,302.32,168.02,302.38,168.06,302.43,168.11,302.48,168.15,302.54,168.19,302.59,168.24,302.65,168.28,302.71,168.32,302.76,168.35,302.82,168.39,302.88,168.43,302.94,168.46,303.00,168.50,303.06,168.53,303.12,168.56,303.18,168.60,303.25,168.63,303.31,168.65,303.37,168.68,303.44,168.71,303.50,168.73,303.57,168.76,303.63,168.78,303.70,168.80,303.76,168.83,303.83,168.85,303.90,168.86,303.96,168.88,304.03,168.90,304.10,168.91,304.17,168.93,304.24,168.94,304.31,168.95,304.37,168.96,304.44,168.97,304.51,168.98,304.58,168.98,304.65,168.99,304.72,168.99,304.79,169.00,304.86,169.00,304.93"/>
		<polygon fill = "#cccccc" stroke = "#cccccc" stroke-width = "0.5" id = "horad-zhodzina" points = "299.00,210.00,299.00,210.07,299.00,210.14,298.99,210.21,298.99,210.28,298.98,210.35,298.98,210.42,298.97,210.49,298.96,210.56,298.95,210.63,298.94,210.69,298.93,210.76,298.91,210.83,298.90,210.90,298.88,210.97,298.86,211.04,298.85,211.10,298.83,211.17,298.80,211.24,298.78,211.30,298.76,211.37,298.73,211.43,298.71,211.50,298.68,211.56,298.65,211.63,298.63,211.69,298.60,211.75,298.56,211.82,298.53,211.88,298.50,211.94,298.46,212.00,298.43,212.06,298.39,212.12,298.35,212.18,298.32,212.24,298.28,212.29,298.24,212.35,298.19,212.41,298.15,212.46,298.11,212.52,298.06,212.57,298.02,212.62,297.97,212.68,297.93,212.73,297.88,212.78,297.83,212.83,297.78,212.88,297.73,212.93,297.68,212.97,297.62,213.02,297.57,213.06,297.52,213.11,297.46,213.15,297.41,213.19,297.35,213.24,297.29,213.28,297.24,213.32,297.18,213.35,297.12,213.39,297.06,213.43,297.00,213.46,296.94,213.50,296.88,213.53,296.82,213.56,296.75,213.60,296.69,213.63,296.63,213.65,296.56,213.68,296.50,213.71,296.43,213.73,296.37,213.76,296.30,213.78,296.24,213.80,296.17,213.83,296.10,213.85,296.04,213.86,295.97,213.88,295.90,213.90,295.83,213.91,295.76,213.93,295.69,213.94,295.63,213.95,295.56,213.96,295.49,213.97,295.42,213.98,295.35,213.98,295.28,213.99,295.21,213.99,295.14,214.00,295.07,214.00,295.00,214.00,294.93,214.00,294.86,214.00,294.79,213.99,294.72,213.99,294.65,213.98,294.58,213.98,294.51,213.97,294.44,213.96,294.37,213.95,294.31,213.94,294.24,213.93,294.17,213.91,294.10,213.90,294.03,213.88,293.96,213.86,293.90,213.85,293.83,213.83,293.76,213.80,293.70,213.78,293.63,213.76,293.57,213.73,293.50,213.71,293.44,213.68,293.37,213.65,293.31,213.63,293.25,213.60,293.18,213.56,293.12,213.53,293.06,213.50,293.00,213.46,292.94,213.43,292.88,213.39,292.82,213.35,292.76,213.32,292.71,213.28,292.65,213.24,292.59,213.19,292.54,213.15,292.48,213.11,292.43,213.06,292.38,213.02,292.32,212.97,292.27,212.93,292.22,212.88,292.17,212.83,292.12,212.78,292.07,212.73,292.03,212.68,291.98,212.62,291.94,212.57,291.89,212.52,291.85,212.46,291.81,212.41,291.76,212.35,291.72,212.29,291.68,212.24,291.65,212.18,291.61,212.12,291.57,212.06,291.54,212.00,291.50,211.94,291.47,211.88,291.44,211.82,291.40,211.75,291.37,211.69,291.35,211.63,291.32,211.56,291.29,211.50,291.27,211.43,291.24,211.37,291.22,211.30,291.20,211.24,291.17,211.17,291.15,211.10,291.14,211.04,291.12,210.97,291.10,210.90,291.09,210.83,291.07,210.76,291.06,210.69,291.05,210.63,291.04,210.56,291.03,210.49,291.02,210.42,291.02,210.35,291.01,210.28,291.01,210.21,291.00,210.14,291.00,210.07,291.00,210.00,291.00,209.93,291.00,209.86,291.01,209.79,291.01,209.72,291.02,209.65,291.02,209.58,291.03,209.51,291.04,209.44,291.05,209.37,291.06,209.31,291.07,209.24,291.09,209.17,291.10,209.10,291.12,209.03,291.14,208.96,291.15,208.90,291.17,208.83,291.20,208.76,291.22,208.70,291.24,208.63,291.27,208.57,291.29,208.50,291.32,208.44,291.35,208.37,291.37,208.31,291.40,208.25,291.44,208.18,291.47,208.12,291.50,208.06,291.54,208.00,291.57,207.94,291.61,207.88,291.65,207.82,291.68,207.76,291.72,207.71,291.76,207.65,291.81,207.59,291.85,207.54,291.89,207.48,291.94,207.43,291.98,207.38,292.03,207.32,292.07,207.27,292.12,207.22,292.17,207.17,292.22,207.12,292.27,207.07,292.32,207.03,292.38,206.98,292.43,206.94,292.48,206.89,292.54,206.85,292.59,206.81,292.65,206.76,292.71,206.72,292.76,206.68,292.82,206.65,292.88,206.61,292.94,206.57,293.00,206.54,293.06,206.50,293.12,206.47,293.18,206.44,293.25,206.40,293.31,206.37,293.37,206.35,293.44,206.32,293.50,206.29,293.57,206.27,293.63,206.24,293.70,206.22,293.76,206.20,293.83,206.17,293.90,206.15,293.96,206.14,294.03,206.12,294.10,206.10,294.17,206.09,294.24,206.07,294.31,206.06,294.37,206.05,294.44,206.04,294.51,206.03,294.58,206.02,294.65,206.02,294.72,206.01,294.79,206.01,294.86,206.00,294.93,206.00,295.00,206.00,295.07,206.00,295.14,206.00,295.21,206.01,295.28,206.01,295.35,206.02,295.42,206.02,295.49,206.03,295.56,206.04,295.63,206.05,295.69,206.06,295.76,206.07,295.83,206.09,295.90,206.10,295.97,206.12,296.04,206.14,296.10,206.15,296.17,206.17,296.24,206.20,296.30,206.22,296.37,206.24,296.43,206.27,296.50,206.29,296.56,206.32,296.63,206.35,296.69,206.37,296.75,206.40,296.82,206.44,296.88,206.47,296.94,206.50,297.00,206.54,297.06,206.57,297.12,206.61,297.18,206.65,297.24,206.68,297.29,206.72,297.35,206.76,297.41,206.81,297.46,206.85,297.52,206.89,297.57,206.94,297.62,206.98,297.68,207.03,297.73,207.07,297.78,207.12,297.83,207.17,297.88,207.22,297.93,207.27,297.97,207.32,298.02,207.38,298.06,207.43,298.11,207.48,298.15,207.54,298.19,207.59,298.24,207.65,298.28,207.71,298.32,207.76,298.35,207.82,298.39,207.88,298.43,207.94,298.46,208.00,298.50,208.06,298.53,208.12,298.56,208.18,298.60,208.25,298.63,208.31,298.65,208.37,298.68,208.44,298.71,208.50,298.73,208.57,298.76,208.63,298.78,208.70,298.80,208.76,298.83,208.83,298.85,208.90,298.86,208.96,298.88,209.03,298.90,209.10,298.91,209.17,298.93,209.24,298.94,209.31,298.95,209.37,298.96,209.44,298.97,209.51,298.98,209.58,298.98,209.65,298.99,209.72,298.99,209.79,299.00,209.86,299.00,209.93"/>
		<polygon fill = "#cccccc" stroke = "#cccccc" stroke-width = "0.5" id = "horad-babruisk" points = "349.00,300.00,349.00,300.07,349.00,300.14,348.99,300.21,348.99,300.28,348.98,300.35,348.98,300.42,348.97,300.49,348.96,300.56,348.95,300.63,348.94,300.69,348.93,300.76,348.91,300.83,348.90,300.90,348.88,300.97,348.86,301.04,348.85,301.10,348.83,301.17,348.80,301.24,348.78,301.30,348.76,301.37,348.73,301.43,348.71,301.50,348.68,301.56,348.65,301.63,348.63,301.69,348.60,301.75,348.56,301.82,348.53,301.88,348.50,301.94,348.46,302.00,348.43,302.06,348.39,302.12,348.35,302.18,348.32,302.24,348.28,302.29,348.24,302.35,348.19,302.41,348.15,302.46,348.11,302.52,348.06,302.57,348.02,302.62,347.97,302.68,347.93,302.73,347.88,302.78,347.83,302.83,347.78,302.88,347.73,302.93,347.68,302.97,347.62,303.02,347.57,303.06,347.52,303.11,347.46,303.15,347.41,303.19,347.35,303.24,347.29,303.28,347.24,303.32,347.18,303.35,347.12,303.39,347.06,303.43,347.00,303.46,346.94,303.50,346.88,303.53,346.82,303.56,346.75,303.60,346.69,303.63,346.63,303.65,346.56,303.68,346.50,303.71,346.43,303.73,346.37,303.76,346.30,303.78,346.24,303.80,346.17,303.83,346.10,303.85,346.04,303.86,345.97,303.88,345.90,303.90,345.83,303.91,345.76,303.93,345.69,303.94,345.63,303.95,345.56,303.96,345.49,303.97,345.42,303.98,345.35,303.98,345.28,303.99,345.21,303.99,345.14,304.00,345.07,304.00,345.00,304.00,344.93,304.00,344.86,304.00,344.79,303.99,344.72,303.99,344.65,303.98,344.58,303.98,344.51,303.97,344.44,303.96,344.37,303.95,344.31,303.94,344.24,303.93,344.17,303.91,344.10,303.90,344.03,303.88,343.96,303.86,343.90,303.85,343.83,303.83,343.76,303.80,343.70,303.78,343.63,303.76,343.57,303.73,343.50,303.71,343.44,303.68,343.37,303.65,343.31,303.63,343.25,303.60,343.18,303.56,343.12,303.53,343.06,303.50,343.00,303.46,342.94,303.43,342.88,303.39,342.82,303.35,342.76,303.32,342.71,303.28,342.65,303.24,342.59,303.19,342.54,303.15,342.48,303.11,342.43,303.06,342.38,303.02,342.32,302.97,342.27,302.93,342.22,302.88,342.17,302.83,342.12,302.78,342.07,302.73,342.03,302.68,341.98,302.62,341.94,302.57,341.89,302.52,341.85,302.46,341.81,302.41,341.76,302.35,341.72,302.29,341.68,302.24,341.65,302.18,341.61,302.12,341.57,302.06,341.54,302.00,341.50,301.94,341.47,301.88,341.44,301.82,341.40,301.75,341.37,301.69,341.35,301.63,341.32,301.56,341.29,301.50,341.27,301.43,341.24,301.37,341.22,301.30,341.20,301.24,341.17,301.17,341.15,301.10,341.14,301.04,341.12,300.97,341.10,300.90,341.09,300.83,341.07,300.76,341.06,300.69,341.05,300.63,341.04,300.56,341.03,300.49,341.02,300.42,341.02,300.35,341.01,300.28,341.01,300.21,341.00,300.14,341.00,300.07,341.00,300.00,341.00,299.93,341.00,299.86,341.01,299.79,341.01,299.72,341.02,299.65,341.02,299.58,341.03,299.51,341.04,299.44,341.05,299.37,341.06,299.31,341.07,299.24,341.09,299.17,341.10,299.10,341.12,299.03,341.14,298.96,341.15,298.90,341.17,298.83,341.20,298.76,341.22,298.70,341.24,298.63,341.27,298.57,341.29,298.50,341.32,298.44,341.35,298.37,341.37,298.31,341.40,298.25,341.44,298.18,341.47,298.12,341.50,298.06,341.54,298.00,341.57,297.94,341.61,297.88,341.65,297.82,341.68,297.76,341.72,297.71,341.76,297.65,341.81,297.59,341.85,297.54,341.89,297.48,341.94,297.43,341.98,297.38,342.03,297.32,342.07,297.27,342.12,297.22,342.17,297.17,342.22,297.12,342.27,297.07,342.32,297.03,342.38,296.98,342.43,296.94,342.48,296.89,342.54,296.85,342.59,296.81,342.65,296.76,342.71,296.72,342.76,296.68,342.82,296.65,342.88,296.61,342.94,296.57,343.00,296.54,343.06,296.50,343.12,296.47,343.18,296.44,343.25,296.40,343.31,296.37,343.37,296.35,343.44,296.32,343.50,296.29,343.57,296.27,343.63,296.24,343.70,296.22,343.76,296.20,343.83,296.17,343.90,296.15,343.96,296.14,344.03,296.12,344.10,296.10,344.17,296.09,344.24,296.07,344.31,296.06,344.37,296.05,344.44,296.04,344.51,296.03,344.58,296.02,344.65,296.02,344.72,296.01,344.79,296.01,344.86,296.00,344.93,296.00,345.00,296.00,345.07,296.00,345.14,296.00,345.21,296.01,345.28,296.01,345.35,296.02,345.42,296.02,345.49,296.03,345.56,296.04,345.63,296.05,345.69,296.06,345.76,296.07,345.83,296.09,345.90,296.10,345.97,296.12,346.04,296.14,346.10,296.15,346.17,296.17,346.24,296.20,346.30,296.22,346.37,296.24,346.43,296.27,346.50,296.29,346.56,296.32,346.63,296.35,346.69,296.37,346.75,296.40,346.82,296.44,346.88,296.47,346.94,296.50,347.00,296.54,347.06,296.57,347.12,296.61,347.18,296.65,347.24,296.68,347.29,296.72,347.35,296.76,347.41,296.81,347.46,296.85,347.52,296.89,347.57,296.94,347.62,296.98,347.68,297.03,347.73,297.07,347.78,297.12,347.83,297.17,347.88,297.22,347.93,297.27,347.97,297.32,348.02,297.38,348.06,297.43,348.11,297.48,348.15,297.54,348.19,297.59,348.24,297.65,348.28,297.71,348.32,297.76,348.35,297.82,348.39,297.88,348.43,297.94,348.46,298.00,348.50,298.06,348.53,298.12,348.56,298.18,348.60,298.25,348.63,298.31,348.65,298.37,348.68,298.44,348.71,298.50,348.73,298.57,348.76,298.63,348.78,298.70,348.80,298.76,348.83,298.83,348.85,298.90,348.86,298.96,348.88,299.03,348.90,299.10,348.91,299.17,348.93,299.24,348.94,299.31,348.95,299.37,348.96,299.44,348.97,299.51,348.98,299.58,348.98,299.65,348.99,299.72,348.99,299.79,349.00,299.86,349.00,299.93"/>
		<polygon fill = "#cccccc" stroke = "#cccccc" stroke-width = "0.5" id = "horad-mahiliou" points = "414.00,230.00,414.00,230.07,414.00,230.14,413.99,230.21,413.99,230.28,413.98,230.35,413.98,230.42,413.97,230.49,413.96,230.56,413.95,230.63,413.94,230.69,413.93,230.76,413.91,230.83,413.90,230.90,413.88,230.97,413.86,231.04,413.85,231.10,413.83,231.17,413.80,231.24,413.78,231.30,413.76,231.37,413.73,231.43,413.71,231.50,413.68,231.56,413.65,231.63,413.63,231.69,413.60,231.75,413.56,231.82,413.53,231.88,413.50,231.94,413.46,232.00,413.43,232.06,413.39,232.12,413.35,232.18,413.32,232.24,413.28,232.29,413.24,232.35,413.19,232.41,413.15,232.46,413.11,232.52,413.06,232.57,413.02,232.62,412.97,232.68,412.93,232.73,412.88,232.78,412.83,232.83,412.78,232.88,412.73,232.93,412.68,232.97,412.62,233.02,412.57,233.06,412.52,233.11,412.46,233.15,412.41,233.19,412.35,233.24,412.29,233.28,412.24,233.32,412.18,233.35,412.12,233.39,412.06,233.43,412.00,233.46,411.94,233.50,411.88,233.53,411.82,233.56,411.75,233.60,411.69,233.63,411.63,233.65,411.56,233.68,411.50,233.71,411.43,233.73,411.37,233.76,411.30,233.78,411.24,233.80,411.17,233.83,411.10,233.85,411.04,233.86,410.97,233.88,410.90,233.90,410.83,233.91,410.76,233.93,410.69,233.94,410.63,233.95,410.56,233.96,410.49,233.97,410.42,233.98,410.35,233.98,410.28,233.99,410.21,233.99,410.14,234.00,410.07,234.00,410.00,234.00,409.93,234.00,409.86,234.00,409.79,233.99,409.72,233.99,409.65,233.98,409.58,233.98,409.51,233.97,409.44,233.96,409.37,233.95,409.31,233.94,409.24,233.93,409.17,233.91,409.10,233.90,409.03,233.88,408.96,233.86,408.90,233.85,408.83,233.83,408.76,233.80,408.70,233.78,408.63,233.76,408.57,233.73,408.50,233.71,408.44,233.68,408.37,233.65,408.31,233.63,408.25,233.60,408.18,233.56,408.12,233.53,408.06,233.50,408.00,233.46,407.94,233.43,407.88,233.39,407.82,233.35,407.76,233.32,407.71,233.28,407.65,233.24,407.59,233.19,407.54,233.15,407.48,233.11,407.43,233.06,407.38,233.02,407.32,232.97,407.27,232.93,407.22,232.88,407.17,232.83,407.12,232.78,407.07,232.73,407.03,232.68,406.98,232.62,406.94,232.57,406.89,232.52,406.85,232.46,406.81,232.41,406.76,232.35,406.72,232.29,406.68,232.24,406.65,232.18,406.61,232.12,406.57,232.06,406.54,232.00,406.50,231.94,406.47,231.88,406.44,231.82,406.40,231.75,406.37,231.69,406.35,231.63,406.32,231.56,406.29,231.50,406.27,231.43,406.24,231.37,406.22,231.30,406.20,231.24,406.17,231.17,406.15,231.10,406.14,231.04,406.12,230.97,406.10,230.90,406.09,230.83,406.07,230.76,406.06,230.69,406.05,230.63,406.04,230.56,406.03,230.49,406.02,230.42,406.02,230.35,406.01,230.28,406.01,230.21,406.00,230.14,406.00,230.07,406.00,230.00,406.00,229.93,406.00,229.86,406.01,229.79,406.01,229.72,406.02,229.65,406.02,229.58,406.03,229.51,406.04,229.44,406.05,229.37,406.06,229.31,406.07,229.24,406.09,229.17,406.10,229.10,406.12,229.03,406.14,228.96,406.15,228.90,406.17,228.83,406.20,228.76,406.22,228.70,406.24,228.63,406.27,228.57,406.29,228.50,406.32,228.44,406.35,228.37,406.37,228.31,406.40,228.25,406.44,228.18,406.47,228.12,406.50,228.06,406.54,228.00,406.57,227.94,406.61,227.88,406.65,227.82,406.68,227.76,406.72,227.71,406.76,227.65,406.81,227.59,406.85,227.54,406.89,227.48,406.94,227.43,406.98,227.38,407.03,227.32,407.07,227.27,407.12,227.22,407.17,227.17,407.22,227.12,407.27,227.07,407.32,227.03,407.38,226.98,407.43,226.94,407.48,226.89,407.54,226.85,407.59,226.81,407.65,226.76,407.71,226.72,407.76,226.68,407.82,226.65,407.88,226.61,407.94,226.57,408.00,226.54,408.06,226.50,408.12,226.47,408.18,226.44,408.25,226.40,408.31,226.37,408.37,226.35,408.44,226.32,408.50,226.29,408.57,226.27,408.63,226.24,408.70,226.22,408.76,226.20,408.83,226.17,408.90,226.15,408.96,226.14,409.03,226.12,409.10,226.10,409.17,226.09,409.24,226.07,409.31,226.06,409.37,226.05,409.44,226.04,409.51,226.03,409.58,226.02,409.65,226.02,409.72,226.01,409.79,226.01,409.86,226.00,409.93,226.00,410.00,226.00,410.07,226.00,410.14,226.00,410.21,226.01,410.28,226.01,410.35,226.02,410.42,226.02,410.49,226.03,410.56,226.04,410.63,226.05,410.69,226.06,410.76,226.07,410.83,226.09,410.90,226.10,410.97,226.12,411.04,226.14,411.10,226.15,411.17,226.17,411.24,226.20,411.30,226.22,411.37,226.24,411.43,226.27,411.50,226.29,411.56,226.32,411.63,226.35,411.69,226.37,411.75,226.40,411.82,226.44,411.88,226.47,411.94,226.50,412.00,226.54,412.06,226.57,412.12,226.61,412.18,226.65,412.24,226.68,412.29,226.72,412.35,226.76,412.41,226.81,412.46,226.85,412.52,226.89,412.57,226.94,412.62,226.98,412.68,227.03,412.73,227.07,412.78,227.12,412.83,227.17,412.88,227.22,412.93,227.27,412.97,227.32,413.02,227.38,413.06,227.43,413.11,227.48,413.15,227.54,413.19,227.59,413.24,227.65,413.28,227.71,413.32,227.76,413.35,227.82,413.39,227.88,413.43,227.94,413.46,228.00,413.50,228.06,413.53,228.12,413.56,228.18,413.60,228.25,413.63,228.31,413.65,228.37,413.68,228.44,413.71,228.50,413.73,228.57,413.76,228.63,413.78,228.70,413.80,228.76,413.83,228.83,413.85,228.90,413.86,228.96,413.88,229.03,413.90,229.10,413.91,229.17,413.93,229.24,413.94,229.31,413.95,229.37,413.96,229.44,413.97,229.51,413.98,229.58,413.98,229.65,413.99,229.72,413.99,229.79,414.00,229.86,414.00,229.93"/>
		<polygon fill = "#cccccc" stroke = "#cccccc" stroke-width = "0.5" id = "horad-brest" points = "39.00,405.00,39.00,405.07,39.00,405.14,38.99,405.21,38.99,405.28,38.98,405.35,38.98,405.42,38.97,405.49,38.96,405.56,38.95,405.63,38.94,405.69,38.93,405.76,38.91,405.83,38.90,405.90,38.88,405.97,38.86,406.04,38.85,406.10,38.83,406.17,38.80,406.24,38.78,406.30,38.76,406.37,38.73,406.43,38.71,406.50,38.68,406.56,38.65,406.63,38.63,406.69,38.60,406.75,38.56,406.82,38.53,406.88,38.50,406.94,38.46,407.00,38.43,407.06,38.39,407.12,38.35,407.18,38.32,407.24,38.28,407.29,38.24,407.35,38.19,407.41,38.15,407.46,38.11,407.52,38.06,407.57,38.02,407.62,37.97,407.68,37.93,407.73,37.88,407.78,37.83,407.83,37.78,407.88,37.73,407.93,37.68,407.97,37.62,408.02,37.57,408.06,37.52,408.11,37.46,408.15,37.41,408.19,37.35,408.24,37.29,408.28,37.24,408.32,37.18,408.35,37.12,408.39,37.06,408.43,37.00,408.46,36.94,408.50,36.88,408.53,36.82,408.56,36.75,408.60,36.69,408.63,36.63,408.65,36.56,408.68,36.50,408.71,36.43,408.73,36.37,408.76,36.30,408.78,36.24,408.80,36.17,408.83,36.10,408.85,36.04,408.86,35.97,408.88,35.90,408.90,35.83,408.91,35.76,408.93,35.69,408.94,35.63,408.95,35.56,408.96,35.49,408.97,35.42,408.98,35.35,408.98,35.28,408.99,35.21,408.99,35.14,409.00,35.07,409.00,35.00,409.00,34.93,409.00,34.86,409.00,34.79,408.99,34.72,408.99,34.65,408.98,34.58,408.98,34.51,408.97,34.44,408.96,34.37,408.95,34.31,408.94,34.24,408.93,34.17,408.91,34.10,408.90,34.03,408.88,33.96,408.86,33.90,408.85,33.83,408.83,33.76,408.80,33.70,408.78,33.63,408.76,33.57,408.73,33.50,408.71,33.44,408.68,33.37,408.65,33.31,408.63,33.25,408.60,33.18,408.56,33.12,408.53,33.06,408.50,33.00,408.46,32.94,408.43,32.88,408.39,32.82,408.35,32.76,408.32,32.71,408.28,32.65,408.24,32.59,408.19,32.54,408.15,32.48,408.11,32.43,408.06,32.38,408.02,32.32,407.97,32.27,407.93,32.22,407.88,32.17,407.83,32.12,407.78,32.07,407.73,32.03,407.68,31.98,407.62,31.94,407.57,31.89,407.52,31.85,407.46,31.81,407.41,31.76,407.35,31.72,407.29,31.68,407.24,31.65,407.18,31.61,407.12,31.57,407.06,31.54,407.00,31.50,406.94,31.47,406.88,31.44,406.82,31.40,406.75,31.37,406.69,31.35,406.63,31.32,406.56,31.29,406.50,31.27,406.43,31.24,406.37,31.22,406.30,31.20,406.24,31.17,406.17,31.15,406.10,31.14,406.04,31.12,405.97,31.10,405.90,31.09,405.83,31.07,405.76,31.06,405.69,31.05,405.63,31.04,405.56,31.03,405.49,31.02,405.42,31.02,405.35,31.01,405.28,31.01,405.21,31.00,405.14,31.00,405.07,31.00,405.00,31.00,404.93,31.00,404.86,31.01,404.79,31.01,404.72,31.02,404.65,31.02,404.58,31.03,404.51,31.04,404.44,31.05,404.37,31.06,404.31,31.07,404.24,31.09,404.17,31.10,404.10,31.12,404.03,31.14,403.96,31.15,403.90,31.17,403.83,31.20,403.76,31.22,403.70,31.24,403.63,31.27,403.57,31.29,403.50,31.32,403.44,31.35,403.37,31.37,403.31,31.40,403.25,31.44,403.18,31.47,403.12,31.50,403.06,31.54,403.00,31.57,402.94,31.61,402.88,31.65,402.82,31.68,402.76,31.72,402.71,31.76,402.65,31.81,402.59,31.85,402.54,31.89,402.48,31.94,402.43,31.98,402.38,32.03,402.32,32.07,402.27,32.12,402.22,32.17,402.17,32.22,402.12,32.27,402.07,32.32,402.03,32.38,401.98,32.43,401.94,32.48,401.89,32.54,401.85,32.59,401.81,32.65,401.76,32.71,401.72,32.76,401.68,32.82,401.65,32.88,401.61,32.94,401.57,33.00,401.54,33.06,401.50,33.12,401.47,33.18,401.44,33.25,401.40,33.31,401.37,33.37,401.35,33.44,401.32,33.50,401.29,33.57,401.27,33.63,401.24,33.70,401.22,33.76,401.20,33.83,401.17,33.90,401.15,33.96,401.14,34.03,401.12,34.10,401.10,34.17,401.09,34.24,401.07,34.31,401.06,34.37,401.05,34.44,401.04,34.51,401.03,34.58,401.02,34.65,401.02,34.72,401.01,34.79,401.01,34.86,401.00,34.93,401.00,35.00,401.00,35.07,401.00,35.14,401.00,35.21,401.01,35.28,401.01,35.35,401.02,35.42,401.02,35.49,401.03,35.56,401.04,35.63,401.05,35.69,401.06,35.76,401.07,35.83,401.09,35.90,401.10,35.97,401.12,36.04,401.14,36.10,401.15,36.17,401.17,36.24,401.20,36.30,401.22,36.37,401.24,36.43,401.27,36.50,401.29,36.56,401.32,36.63,401.35,36.69,401.37,36.75,401.40,36.82,401.44,36.88,401.47,36.94,401.50,37.00,401.54,37.06,401.57,37.12,401.61,37.18,401.65,37.24,401.68,37.29,401.72,37.35,401.76,37.41,401.81,37.46,401.85,37.52,401.89,37.57,401.94,37.62,401.98,37.68,402.03,37.73,402.07,37.78,402.12,37.83,402.17,37.88,402.22,37.93,402.27,37.97,402.32,38.02,402.38,38.06,402.43,38.11,402.48,38.15,402.54,38.19,402.59,38.24,402.65,38.28,402.71,38.32,402.76,38.35,402.82,38.39,402.88,38.43,402.94,38.46,403.00,38.50,403.06,38.53,403.12,38.56,403.18,38.60,403.25,38.63,403.31,38.65,403.37,38.68,403.44,38.71,403.50,38.73,403.57,38.76,403.63,38.78,403.70,38.80,403.76,38.83,403.83,38.85,403.90,38.86,403.96,38.88,404.03,38.90,404.10,38.91,404.17,38.93,404.24,38.94,404.31,38.95,404.37,38.96,404.44,38.97,404.51,38.98,404.58,38.98,404.65,38.99,404.72,38.99,404.79,39.00,404.86,39.00,404.93"/>
		<polygon fill = "#cccccc" stroke = "#cccccc" stroke-width = "0.5" id = "horad-vitsebsk" points = "404.00,110.00,404.00,110.07,404.00,110.14,403.99,110.21,403.99,110.28,403.98,110.35,403.98,110.42,403.97,110.49,403.96,110.56,403.95,110.63,403.94,110.69,403.93,110.76,403.91,110.83,403.90,110.90,403.88,110.97,403.86,111.04,403.85,111.10,403.83,111.17,403.80,111.24,403.78,111.30,403.76,111.37,403.73,111.43,403.71,111.50,403.68,111.56,403.65,111.63,403.63,111.69,403.60,111.75,403.56,111.82,403.53,111.88,403.50,111.94,403.46,112.00,403.43,112.06,403.39,112.12,403.35,112.18,403.32,112.24,403.28,112.29,403.24,112.35,403.19,112.41,403.15,112.46,403.11,112.52,403.06,112.57,403.02,112.62,402.97,112.68,402.93,112.73,402.88,112.78,402.83,112.83,402.78,112.88,402.73,112.93,402.68,112.97,402.62,113.02,402.57,113.06,402.52,113.11,402.46,113.15,402.41,113.19,402.35,113.24,402.29,113.28,402.24,113.32,402.18,113.35,402.12,113.39,402.06,113.43,402.00,113.46,401.94,113.50,401.88,113.53,401.82,113.56,401.75,113.60,401.69,113.63,401.63,113.65,401.56,113.68,401.50,113.71,401.43,113.73,401.37,113.76,401.30,113.78,401.24,113.80,401.17,113.83,401.10,113.85,401.04,113.86,400.97,113.88,400.90,113.90,400.83,113.91,400.76,113.93,400.69,113.94,400.63,113.95,400.56,113.96,400.49,113.97,400.42,113.98,400.35,113.98,400.28,113.99,400.21,113.99,400.14,114.00,400.07,114.00,400.00,114.00,399.93,114.00,399.86,114.00,399.79,113.99,399.72,113.99,399.65,113.98,399.58,113.98,399.51,113.97,399.44,113.96,399.37,113.95,399.31,113.94,399.24,113.93,399.17,113.91,399.10,113.90,399.03,113.88,398.96,113.86,398.90,113.85,398.83,113.83,398.76,113.80,398.70,113.78,398.63,113.76,398.57,113.73,398.50,113.71,398.44,113.68,398.37,113.65,398.31,113.63,398.25,113.60,398.18,113.56,398.12,113.53,398.06,113.50,398.00,113.46,397.94,113.43,397.88,113.39,397.82,113.35,397.76,113.32,397.71,113.28,397.65,113.24,397.59,113.19,397.54,113.15,397.48,113.11,397.43,113.06,397.38,113.02,397.32,112.97,397.27,112.93,397.22,112.88,397.17,112.83,397.12,112.78,397.07,112.73,397.03,112.68,396.98,112.62,396.94,112.57,396.89,112.52,396.85,112.46,396.81,112.41,396.76,112.35,396.72,112.29,396.68,112.24,396.65,112.18,396.61,112.12,396.57,112.06,396.54,112.00,396.50,111.94,396.47,111.88,396.44,111.82,396.40,111.75,396.37,111.69,396.35,111.63,396.32,111.56,396.29,111.50,396.27,111.43,396.24,111.37,396.22,111.30,396.20,111.24,396.17,111.17,396.15,111.10,396.14,111.04,396.12,110.97,396.10,110.90,396.09,110.83,396.07,110.76,396.06,110.69,396.05,110.63,396.04,110.56,396.03,110.49,396.02,110.42,396.02,110.35,396.01,110.28,396.01,110.21,396.00,110.14,396.00,110.07,396.00,110.00,396.00,109.93,396.00,109.86,396.01,109.79,396.01,109.72,396.02,109.65,396.02,109.58,396.03,109.51,396.04,109.44,396.05,109.37,396.06,109.31,396.07,109.24,396.09,109.17,396.10,109.10,396.12,109.03,396.14,108.96,396.15,108.90,396.17,108.83,396.20,108.76,396.22,108.70,396.24,108.63,396.27,108.57,396.29,108.50,396.32,108.44,396.35,108.37,396.37,108.31,396.40,108.25,396.44,108.18,396.47,108.12,396.50,108.06,396.54,108.00,396.57,107.94,396.61,107.88,396.65,107.82,396.68,107.76,396.72,107.71,396.76,107.65,396.81,107.59,396.85,107.54,396.89,107.48,396.94,107.43,396.98,107.38,397.03,107.32,397.07,107.27,397.12,107.22,397.17,107.17,397.22,107.12,397.27,107.07,397.32,107.03,397.38,106.98,397.43,106.94,397.48,106.89,397.54,106.85,397.59,106.81,397.65,106.76,397.71,106.72,397.76,106.68,397.82,106.65,397.88,106.61,397.94,106.57,398.00,106.54,398.06,106.50,398.12,106.47,398.18,106.44,398.25,106.40,398.31,106.37,398.37,106.35,398.44,106.32,398.50,106.29,398.57,106.27,398.63,106.24,398.70,106.22,398.76,106.20,398.83,106.17,398.90,106.15,398.96,106.14,399.03,106.12,399.10,106.10,399.17,106.09,399.24,106.07,399.31,106.06,399.37,106.05,399.44,106.04,399.51,106.03,399.58,106.02,399.65,106.02,399.72,106.01,399.79,106.01,399.86,106.00,399.93,106.00,400.00,106.00,400.07,106.00,400.14,106.00,400.21,106.01,400.28,106.01,400.35,106.02,400.42,106.02,400.49,106.03,400.56,106.04,400.63,106.05,400.69,106.06,400.76,106.07,400.83,106.09,400.90,106.10,400.97,106.12,401.04,106.14,401.10,106.15,401.17,106.17,401.24,106.20,401.30,106.22,401.37,106.24,401.43,106.27,401.50,106.29,401.56,106.32,401.63,106.35,401.69,106.37,401.75,106.40,401.82,106.44,401.88,106.47,401.94,106.50,402.00,106.54,402.06,106.57,402.12,106.61,402.18,106.65,402.24,106.68,402.29,106.72,402.35,106.76,402.41,106.81,402.46,106.85,402.52,106.89,402.57,106.94,402.62,106.98,402.68,107.03,402.73,107.07,402.78,107.12,402.83,107.17,402.88,107.22,402.93,107.27,402.97,107.32,403.02,107.38,403.06,107.43,403.11,107.48,403.15,107.54,403.19,107.59,403.24,107.65,403.28,107.71,403.32,107.76,403.35,107.82,403.39,107.88,403.43,107.94,403.46,108.00,403.50,108.06,403.53,108.12,403.56,108.18,403.60,108.25,403.63,108.31,403.65,108.37,403.68,108.44,403.71,108.50,403.73,108.57,403.76,108.63,403.78,108.70,403.80,108.76,403.83,108.83,403.85,108.90,403.86,108.96,403.88,109.03,403.90,109.10,403.91,109.17,403.93,109.24,403.94,109.31,403.95,109.37,403.96,109.44,403.97,109.51,403.98,109.58,403.98,109.65,403.99,109.72,403.99,109.79,404.00,109.86,404.00,109.93"/>
		<polygon fill = "#cccccc" stroke = "#cccccc" stroke-width = "0.5" id = "horad-homel" points = "454.00,375.00,454.00,375.07,454.00,375.14,453.99,375.21,453.99,375.28,453.98,375.35,453.98,375.42,453.97,375.49,453.96,375.56,453.95,375.63,453.94,375.69,453.93,375.76,453.91,375.83,453.90,375.90,453.88,375.97,453.86,376.04,453.85,376.10,453.83,376.17,453.80,376.24,453.78,376.30,453.76,376.37,453.73,376.43,453.71,376.50,453.68,376.56,453.65,376.63,453.63,376.69,453.60,376.75,453.56,376.82,453.53,376.88,453.50,376.94,453.46,377.00,453.43,377.06,453.39,377.12,453.35,377.18,453.32,377.24,453.28,377.29,453.24,377.35,453.19,377.41,453.15,377.46,453.11,377.52,453.06,377.57,453.02,377.62,452.97,377.68,452.93,377.73,452.88,377.78,452.83,377.83,452.78,377.88,452.73,377.93,452.68,377.97,452.62,378.02,452.57,378.06,452.52,378.11,452.46,378.15,452.41,378.19,452.35,378.24,452.29,378.28,452.24,378.32,452.18,378.35,452.12,378.39,452.06,378.43,452.00,378.46,451.94,378.50,451.88,378.53,451.82,378.56,451.75,378.60,451.69,378.63,451.63,378.65,451.56,378.68,451.50,378.71,451.43,378.73,451.37,378.76,451.30,378.78,451.24,378.80,451.17,378.83,451.10,378.85,451.04,378.86,450.97,378.88,450.90,378.90,450.83,378.91,450.76,378.93,450.69,378.94,450.63,378.95,450.56,378.96,450.49,378.97,450.42,378.98,450.35,378.98,450.28,378.99,450.21,378.99,450.14,379.00,450.07,379.00,450.00,379.00,449.93,379.00,449.86,379.00,449.79,378.99,449.72,378.99,449.65,378.98,449.58,378.98,449.51,378.97,449.44,378.96,449.37,378.95,449.31,378.94,449.24,378.93,449.17,378.91,449.10,378.90,449.03,378.88,448.96,378.86,448.90,378.85,448.83,378.83,448.76,378.80,448.70,378.78,448.63,378.76,448.57,378.73,448.50,378.71,448.44,378.68,448.37,378.65,448.31,378.63,448.25,378.60,448.18,378.56,448.12,378.53,448.06,378.50,448.00,378.46,447.94,378.43,447.88,378.39,447.82,378.35,447.76,378.32,447.71,378.28,447.65,378.24,447.59,378.19,447.54,378.15,447.48,378.11,447.43,378.06,447.38,378.02,447.32,377.97,447.27,377.93,447.22,377.88,447.17,377.83,447.12,377.78,447.07,377.73,447.03,377.68,446.98,377.62,446.94,377.57,446.89,377.52,446.85,377.46,446.81,377.41,446.76,377.35,446.72,377.29,446.68,377.24,446.65,377.18,446.61,377.12,446.57,377.06,446.54,377.00,446.50,376.94,446.47,376.88,446.44,376.82,446.40,376.75,446.37,376.69,446.35,376.63,446.32,376.56,446.29,376.50,446.27,376.43,446.24,376.37,446.22,376.30,446.20,376.24,446.17,376.17,446.15,376.10,446.14,376.04,446.12,375.97,446.10,375.90,446.09,375.83,446.07,375.76,446.06,375.69,446.05,375.63,446.04,375.56,446.03,375.49,446.02,375.42,446.02,375.35,446.01,375.28,446.01,375.21,446.00,375.14,446.00,375.07,446.00,375.00,446.00,374.93,446.00,374.86,446.01,374.79,446.01,374.72,446.02,374.65,446.02,374.58,446.03,374.51,446.04,374.44,446.05,374.37,446.06,374.31,446.07,374.24,446.09,374.17,446.10,374.10,446.12,374.03,446.14,373.96,446.15,373.90,446.17,373.83,446.20,373.76,446.22,373.70,446.24,373.63,446.27,373.57,446.29,373.50,446.32,373.44,446.35,373.37,446.37,373.31,446.40,373.25,446.44,373.18,446.47,373.12,446.50,373.06,446.54,373.00,446.57,372.94,446.61,372.88,446.65,372.82,446.68,372.76,446.72,372.71,446.76,372.65,446.81,372.59,446.85,372.54,446.89,372.48,446.94,372.43,446.98,372.38,447.03,372.32,447.07,372.27,447.12,372.22,447.17,372.17,447.22,372.12,447.27,372.07,447.32,372.03,447.38,371.98,447.43,371.94,447.48,371.89,447.54,371.85,447.59,371.81,447.65,371.76,447.71,371.72,447.76,371.68,447.82,371.65,447.88,371.61,447.94,371.57,448.00,371.54,448.06,371.50,448.12,371.47,448.18,371.44,448.25,371.40,448.31,371.37,448.37,371.35,448.44,371.32,448.50,371.29,448.57,371.27,448.63,371.24,448.70,371.22,448.76,371.20,448.83,371.17,448.90,371.15,448.96,371.14,449.03,371.12,449.10,371.10,449.17,371.09,449.24,371.07,449.31,371.06,449.37,371.05,449.44,371.04,449.51,371.03,449.58,371.02,449.65,371.02,449.72,371.01,449.79,371.01,449.86,371.00,449.93,371.00,450.00,371.00,450.07,371.00,450.14,371.00,450.21,371.01,450.28,371.01,450.35,371.02,450.42,371.02,450.49,371.03,450.56,371.04,450.63,371.05,450.69,371.06,450.76,371.07,450.83,371.09,450.90,371.10,450.97,371.12,451.04,371.14,451.10,371.15,451.17,371.17,451.24,371.20,451.30,371.22,451.37,371.24,451.43,371.27,451.50,371.29,451.56,371.32,451.63,371.35,451.69,371.37,451.75,371.40,451.82,371.44,451.88,371.47,451.94,371.50,452.00,371.54,452.06,371.57,452.12,371.61,452.18,371.65,452.24,371.68,452.29,371.72,452.35,371.76,452.41,371.81,452.46,371.85,452.52,371.89,452.57,371.94,452.62,371.98,452.68,372.03,452.73,372.07,452.78,372.12,452.83,372.17,452.88,372.22,452.93,372.27,452.97,372.32,453.02,372.38,453.06,372.43,453.11,372.48,453.15,372.54,453.19,372.59,453.24,372.65,453.28,372.71,453.32,372.76,453.35,372.82,453.39,372.88,453.43,372.94,453.46,373.00,453.50,373.06,453.53,373.12,453.56,373.18,453.60,373.25,453.63,373.31,453.65,373.37,453.68,373.44,453.71,373.50,453.73,373.57,453.76,373.63,453.78,373.70,453.80,373.76,453.83,373.83,453.85,373.90,453.86,373.96,453.88,374.03,453.90,374.10,453.91,374.17,453.93,374.24,453.94,374.31,453.95,374.37,453.96,374.44,453.97,374.51,453.98,374.58,453.98,374.65,453.99,374.72,453.99,374.79,454.00,374.86,454.00,374.93"/>
		<polygon fill = "#cccccc" stroke = "#cccccc" stroke-width = "0.5" id = "horad-hrodna" points = "44.00,250.00,44.00,250.07,44.00,250.14,43.99,250.21,43.99,250.28,43.98,250.35,43.98,250.42,43.97,250.49,43.96,250.56,43.95,250.63,43.94,250.69,43.93,250.76,43.91,250.83,43.90,250.90,43.88,250.97,43.86,251.04,43.85,251.10,43.83,251.17,43.80,251.24,43.78,251.30,43.76,251.37,43.73,251.43,43.71,251.50,43.68,251.56,43.65,251.63,43.63,251.69,43.60,251.75,43.56,251.82,43.53,251.88,43.50,251.94,43.46,252.00,43.43,252.06,43.39,252.12,43.35,252.18,43.32,252.24,43.28,252.29,43.24,252.35,43.19,252.41,43.15,252.46,43.11,252.52,43.06,252.57,43.02,252.62,42.97,252.68,42.93,252.73,42.88,252.78,42.83,252.83,42.78,252.88,42.73,252.93,42.68,252.97,42.62,253.02,42.57,253.06,42.52,253.11,42.46,253.15,42.41,253.19,42.35,253.24,42.29,253.28,42.24,253.32,42.18,253.35,42.12,253.39,42.06,253.43,42.00,253.46,41.94,253.50,41.88,253.53,41.82,253.56,41.75,253.60,41.69,253.63,41.63,253.65,41.56,253.68,41.50,253.71,41.43,253.73,41.37,253.76,41.30,253.78,41.24,253.80,41.17,253.83,41.10,253.85,41.04,253.86,40.97,253.88,40.90,253.90,40.83,253.91,40.76,253.93,40.69,253.94,40.63,253.95,40.56,253.96,40.49,253.97,40.42,253.98,40.35,253.98,40.28,253.99,40.21,253.99,40.14,254.00,40.07,254.00,40.00,254.00,39.93,254.00,39.86,254.00,39.79,253.99,39.72,253.99,39.65,253.98,39.58,253.98,39.51,253.97,39.44,253.96,39.37,253.95,39.31,253.94,39.24,253.93,39.17,253.91,39.10,253.90,39.03,253.88,38.96,253.86,38.90,253.85,38.83,253.83,38.76,253.80,38.70,253.78,38.63,253.76,38.57,253.73,38.50,253.71,38.44,253.68,38.37,253.65,38.31,253.63,38.25,253.60,38.18,253.56,38.12,253.53,38.06,253.50,38.00,253.46,37.94,253.43,37.88,253.39,37.82,253.35,37.76,253.32,37.71,253.28,37.65,253.24,37.59,253.19,37.54,253.15,37.48,253.11,37.43,253.06,37.38,253.02,37.32,252.97,37.27,252.93,37.22,252.88,37.17,252.83,37.12,252.78,37.07,252.73,37.03,252.68,36.98,252.62,36.94,252.57,36.89,252.52,36.85,252.46,36.81,252.41,36.76,252.35,36.72,252.29,36.68,252.24,36.65,252.18,36.61,252.12,36.57,252.06,36.54,252.00,36.50,251.94,36.47,251.88,36.44,251.82,36.40,251.75,36.37,251.69,36.35,251.63,36.32,251.56,36.29,251.50,36.27,251.43,36.24,251.37,36.22,251.30,36.20,251.24,36.17,251.17,36.15,251.10,36.14,251.04,36.12,250.97,36.10,250.90,36.09,250.83,36.07,250.76,36.06,250.69,36.05,250.63,36.04,250.56,36.03,250.49,36.02,250.42,36.02,250.35,36.01,250.28,36.01,250.21,36.00,250.14,36.00,250.07,36.00,250.00,36.00,249.93,36.00,249.86,36.01,249.79,36.01,249.72,36.02,249.65,36.02,249.58,36.03,249.51,36.04,249.44,36.05,249.37,36.06,249.31,36.07,249.24,36.09,249.17,36.10,249.10,36.12,249.03,36.14,248.96,36.15,248.90,36.17,248.83,36.20,248.76,36.22,248.70,36.24,248.63,36.27,248.57,36.29,248.50,36.32,248.44,36.35,248.37,36.37,248.31,36.40,248.25,36.44,248.18,36.47,248.12,36.50,248.06,36.54,248.00,36.57,247.94,36.61,247.88,36.65,247.82,36.68,247.76,36.72,247.71,36.76,247.65,36.81,247.59,36.85,247.54,36.89,247.48,36.94,247.43,36.98,247.38,37.03,247.32,37.07,247.27,37.12,247.22,37.17,247.17,37.22,247.12,37.27,247.07,37.32,247.03,37.38,246.98,37.43,246.94,37.48,246.89,37.54,246.85,37.59,246.81,37.65,246.76,37.71,246.72,37.76,246.68,37.82,246.65,37.88,246.61,37.94,246.57,38.00,246.54,38.06,246.50,38.12,246.47,38.18,246.44,38.25,246.40,38.31,246.37,38.37,246.35,38.44,246.32,38.50,246.29,38.57,246.27,38.63,246.24,38.70,246.22,38.76,246.20,38.83,246.17,38.90,246.15,38.96,246.14,39.03,246.12,39.10,246.10,39.17,246.09,39.24,246.07,39.31,246.06,39.37,246.05,39.44,246.04,39.51,246.03,39.58,246.02,39.65,246.02,39.72,246.01,39.79,246.01,39.86,246.00,39.93,246.00,40.00,246.00,40.07,246.00,40.14,246.00,40.21,246.01,40.28,246.01,40.35,246.02,40.42,246.02,40.49,246.03,40.56,246.04,40.63,246.05,40.69,246.06,40.76,246.07,40.83,246.09,40.90,246.10,40.97,246.12,41.04,246.14,41.10,246.15,41.17,246.17,41.24,246.20,41.30,246.22,41.37,246.24,41.43,246.27,41.50,246.29,41.56,246.32,41.63,246.35,41.69,246.37,41.75,246.40,41.82,246.44,41.88,246.47,41.94,246.50,42.00,246.54,42.06,246.57,42.12,246.61,42.18,246.65,42.24,246.68,42.29,246.72,42.35,246.76,42.41,246.81,42.46,246.85,42.52,246.89,42.57,246.94,42.62,246.98,42.68,247.03,42.73,247.07,42.78,247.12,42.83,247.17,42.88,247.22,42.93,247.27,42.97,247.32,43.02,247.38,43.06,247.43,43.11,247.48,43.15,247.54,43.19,247.59,43.24,247.65,43.28,247.71,43.32,247.76,43.35,247.82,43.39,247.88,43.43,247.94,43.46,248.00,43.50,248.06,43.53,248.12,43.56,248.18,43.60,248.25,43.63,248.31,43.65,248.37,43.68,248.44,43.71,248.50,43.73,248.57,43.76,248.63,43.78,248.70,43.80,248.76,43.83,248.83,43.85,248.90,43.86,248.96,43.88,249.03,43.90,249.10,43.91,249.17,43.93,249.24,43.94,249.31,43.95,249.37,43.96,249.44,43.97,249.51,43.98,249.58,43.98,249.65,43.99,249.72,43.99,249.79,44.00,249.86,44.00,249.93"/>
		<polygon fill = "#cccccc" stroke = "#cccccc" stroke-width = "0.5" id = "horad-navapolatsk" points = "314.00,75.00,314.00,75.07,314.00,75.14,313.99,75.21,313.99,75.28,313.98,75.35,313.98,75.42,313.97,75.49,313.96,75.56,313.95,75.63,313.94,75.69,313.93,75.76,313.91,75.83,313.90,75.90,313.88,75.97,313.86,76.04,313.85,76.10,313.83,76.17,313.80,76.24,313.78,76.30,313.76,76.37,313.73,76.43,313.71,76.50,313.68,76.56,313.65,76.63,313.63,76.69,313.60,76.75,313.56,76.82,313.53,76.88,313.50,76.94,313.46,77.00,313.43,77.06,313.39,77.12,313.35,77.18,313.32,77.24,313.28,77.29,313.24,77.35,313.19,77.41,313.15,77.46,313.11,77.52,313.06,77.57,313.02,77.62,312.97,77.68,312.93,77.73,312.88,77.78,312.83,77.83,312.78,77.88,312.73,77.93,312.68,77.97,312.62,78.02,312.57,78.06,312.52,78.11,312.46,78.15,312.41,78.19,312.35,78.24,312.29,78.28,312.24,78.32,312.18,78.35,312.12,78.39,312.06,78.43,312.00,78.46,311.94,78.50,311.88,78.53,311.82,78.56,311.75,78.60,311.69,78.63,311.63,78.65,311.56,78.68,311.50,78.71,311.43,78.73,311.37,78.76,311.30,78.78,311.24,78.80,311.17,78.83,311.10,78.85,311.04,78.86,310.97,78.88,310.90,78.90,310.83,78.91,310.76,78.93,310.69,78.94,310.63,78.95,310.56,78.96,310.49,78.97,310.42,78.98,310.35,78.98,310.28,78.99,310.21,78.99,310.14,79.00,310.07,79.00,310.00,79.00,309.93,79.00,309.86,79.00,309.79,78.99,309.72,78.99,309.65,78.98,309.58,78.98,309.51,78.97,309.44,78.96,309.37,78.95,309.31,78.94,309.24,78.93,309.17,78.91,309.10,78.90,309.03,78.88,308.96,78.86,308.90,78.85,308.83,78.83,308.76,78.80,308.70,78.78,308.63,78.76,308.57,78.73,308.50,78.71,308.44,78.68,308.37,78.65,308.31,78.63,308.25,78.60,308.18,78.56,308.12,78.53,308.06,78.50,308.00,78.46,307.94,78.43,307.88,78.39,307.82,78.35,307.76,78.32,307.71,78.28,307.65,78.24,307.59,78.19,307.54,78.15,307.48,78.11,307.43,78.06,307.38,78.02,307.32,77.97,307.27,77.93,307.22,77.88,307.17,77.83,307.12,77.78,307.07,77.73,307.03,77.68,306.98,77.62,306.94,77.57,306.89,77.52,306.85,77.46,306.81,77.41,306.76,77.35,306.72,77.29,306.68,77.24,306.65,77.18,306.61,77.12,306.57,77.06,306.54,77.00,306.50,76.94,306.47,76.88,306.44,76.82,306.40,76.75,306.37,76.69,306.35,76.63,306.32,76.56,306.29,76.50,306.27,76.43,306.24,76.37,306.22,76.30,306.20,76.24,306.17,76.17,306.15,76.10,306.14,76.04,306.12,75.97,306.10,75.90,306.09,75.83,306.07,75.76,306.06,75.69,306.05,75.63,306.04,75.56,306.03,75.49,306.02,75.42,306.02,75.35,306.01,75.28,306.01,75.21,306.00,75.14,306.00,75.07,306.00,75.00,306.00,74.93,306.00,74.86,306.01,74.79,306.01,74.72,306.02,74.65,306.02,74.58,306.03,74.51,306.04,74.44,306.05,74.37,306.06,74.31,306.07,74.24,306.09,74.17,306.10,74.10,306.12,74.03,306.14,73.96,306.15,73.90,306.17,73.83,306.20,73.76,306.22,73.70,306.24,73.63,306.27,73.57,306.29,73.50,306.32,73.44,306.35,73.37,306.37,73.31,306.40,73.25,306.44,73.18,306.47,73.12,306.50,73.06,306.54,73.00,306.57,72.94,306.61,72.88,306.65,72.82,306.68,72.76,306.72,72.71,306.76,72.65,306.81,72.59,306.85,72.54,306.89,72.48,306.94,72.43,306.98,72.38,307.03,72.32,307.07,72.27,307.12,72.22,307.17,72.17,307.22,72.12,307.27,72.07,307.32,72.03,307.38,71.98,307.43,71.94,307.48,71.89,307.54,71.85,307.59,71.81,307.65,71.76,307.71,71.72,307.76,71.68,307.82,71.65,307.88,71.61,307.94,71.57,308.00,71.54,308.06,71.50,308.12,71.47,308.18,71.44,308.25,71.40,308.31,71.37,308.37,71.35,308.44,71.32,308.50,71.29,308.57,71.27,308.63,71.24,308.70,71.22,308.76,71.20,308.83,71.17,308.90,71.15,308.96,71.14,309.03,71.12,309.10,71.10,309.17,71.09,309.24,71.07,309.31,71.06,309.37,71.05,309.44,71.04,309.51,71.03,309.58,71.02,309.65,71.02,309.72,71.01,309.79,71.01,309.86,71.00,309.93,71.00,310.00,71.00,310.07,71.00,310.14,71.00,310.21,71.01,310.28,71.01,310.35,71.02,310.42,71.02,310.49,71.03,310.56,71.04,310.63,71.05,310.69,71.06,310.76,71.07,310.83,71.09,310.90,71.10,310.97,71.12,311.04,71.14,311.10,71.15,311.17,71.17,311.24,71.20,311.30,71.22,311.37,71.24,311.43,71.27,311.50,71.29,311.56,71.32,311.63,71.35,311.69,71.37,311.75,71.40,311.82,71.44,311.88,71.47,311.94,71.50,312.00,71.54,312.06,71.57,312.12,71.61,312.18,71.65,312.24,71.68,312.29,71.72,312.35,71.76,312.41,71.81,312.46,71.85,312.52,71.89,312.57,71.94,312.62,71.98,312.68,72.03,312.73,72.07,312.78,72.12,312.83,72.17,312.88,72.22,312.93,72.27,312.97,72.32,313.02,72.38,313.06,72.43,313.11,72.48,313.15,72.54,313.19,72.59,313.24,72.65,313.28,72.71,313.32,72.76,313.35,72.82,313.39,72.88,313.43,72.94,313.46,73.00,313.50,73.06,313.53,73.12,313.56,73.18,313.60,73.25,313.63,73.31,313.65,73.37,313.68,73.44,313.71,73.50,313.73,73.57,313.76,73.63,313.78,73.70,313.80,73.76,313.83,73.83,313.85,73.90,313.86,73.96,313.88,74.03,313.90,74.10,313.91,74.17,313.93,74.24,313.94,74.31,313.95,74.37,313.96,74.44,313.97,74.51,313.98,74.58,313.98,74.65,313.99,74.72,313.99,74.79,314.00,74.86,314.00,74.93" />
	
	<polygon fill = "#cccccc" stroke = "#cccccc" stroke-width = "0.5" id = "horad-minsk" points = "261.00,231.00,261.00,231.14,261.00,231.28,260.99,231.42,260.98,231.56,260.97,231.70,260.96,231.84,260.94,231.97,260.92,232.11,260.90,232.25,260.88,232.39,260.85,232.53,260.83,232.66,260.79,232.80,260.76,232.94,260.73,233.07,260.69,233.21,260.65,233.34,260.61,233.47,260.56,233.60,260.52,233.74,260.47,233.87,260.42,234.00,260.36,234.13,260.31,234.25,260.25,234.38,260.19,234.51,260.13,234.63,260.06,234.76,260.00,234.88,259.93,235.00,259.86,235.12,259.78,235.24,259.71,235.36,259.63,235.47,259.55,235.59,259.47,235.70,259.39,235.81,259.30,235.93,259.22,236.03,259.13,236.14,259.04,236.25,258.95,236.35,258.85,236.46,258.75,236.56,258.66,236.66,258.56,236.75,258.46,236.85,258.35,236.95,258.25,237.04,258.14,237.13,258.03,237.22,257.93,237.30,257.81,237.39,257.70,237.47,257.59,237.55,257.47,237.63,257.36,237.71,257.24,237.78,257.12,237.86,257.00,237.93,256.88,238.00,256.76,238.06,256.63,238.13,256.51,238.19,256.38,238.25,256.25,238.31,256.13,238.36,256.00,238.42,255.87,238.47,255.74,238.52,255.60,238.56,255.47,238.61,255.34,238.65,255.21,238.69,255.07,238.73,254.94,238.76,254.80,238.79,254.66,238.83,254.53,238.85,254.39,238.88,254.25,238.90,254.11,238.92,253.97,238.94,253.84,238.96,253.70,238.97,253.56,238.98,253.42,238.99,253.28,239.00,253.14,239.00,253.00,239.00,252.86,239.00,252.72,239.00,252.58,238.99,252.44,238.98,252.30,238.97,252.16,238.96,252.03,238.94,251.89,238.92,251.75,238.90,251.61,238.88,251.47,238.85,251.34,238.83,251.20,238.79,251.06,238.76,250.93,238.73,250.79,238.69,250.66,238.65,250.53,238.61,250.40,238.56,250.26,238.52,250.13,238.47,250.00,238.42,249.87,238.36,249.75,238.31,249.62,238.25,249.49,238.19,249.37,238.13,249.24,238.06,249.12,238.00,249.00,237.93,248.88,237.86,248.76,237.78,248.64,237.71,248.53,237.63,248.41,237.55,248.30,237.47,248.19,237.39,248.07,237.30,247.97,237.22,247.86,237.13,247.75,237.04,247.65,236.95,247.54,236.85,247.44,236.75,247.34,236.66,247.25,236.56,247.15,236.46,247.05,236.35,246.96,236.25,246.87,236.14,246.78,236.03,246.70,235.93,246.61,235.81,246.53,235.70,246.45,235.59,246.37,235.47,246.29,235.36,246.22,235.24,246.14,235.12,246.07,235.00,246.00,234.88,245.94,234.76,245.87,234.63,245.81,234.51,245.75,234.38,245.69,234.25,245.64,234.13,245.58,234.00,245.53,233.87,245.48,233.74,245.44,233.60,245.39,233.47,245.35,233.34,245.31,233.21,245.27,233.07,245.24,232.94,245.21,232.80,245.17,232.66,245.15,232.53,245.12,232.39,245.10,232.25,245.08,232.11,245.06,231.97,245.04,231.84,245.03,231.70,245.02,231.56,245.01,231.42,245.00,231.28,245.00,231.14,245.00,231.00,245.00,230.86,245.00,230.72,245.01,230.58,245.02,230.44,245.03,230.30,245.04,230.16,245.06,230.03,245.08,229.89,245.10,229.75,245.12,229.61,245.15,229.47,245.17,229.34,245.21,229.20,245.24,229.06,245.27,228.93,245.31,228.79,245.35,228.66,245.39,228.53,245.44,228.40,245.48,228.26,245.53,228.13,245.58,228.00,245.64,227.87,245.69,227.75,245.75,227.62,245.81,227.49,245.87,227.37,245.94,227.24,246.00,227.12,246.07,227.00,246.14,226.88,246.22,226.76,246.29,226.64,246.37,226.53,246.45,226.41,246.53,226.30,246.61,226.19,246.70,226.07,246.78,225.97,246.87,225.86,246.96,225.75,247.05,225.65,247.15,225.54,247.25,225.44,247.34,225.34,247.44,225.25,247.54,225.15,247.65,225.05,247.75,224.96,247.86,224.87,247.97,224.78,248.07,224.70,248.19,224.61,248.30,224.53,248.41,224.45,248.53,224.37,248.64,224.29,248.76,224.22,248.88,224.14,249.00,224.07,249.12,224.00,249.24,223.94,249.37,223.87,249.49,223.81,249.62,223.75,249.75,223.69,249.87,223.64,250.00,223.58,250.13,223.53,250.26,223.48,250.40,223.44,250.53,223.39,250.66,223.35,250.79,223.31,250.93,223.27,251.06,223.24,251.20,223.21,251.34,223.17,251.47,223.15,251.61,223.12,251.75,223.10,251.89,223.08,252.03,223.06,252.16,223.04,252.30,223.03,252.44,223.02,252.58,223.01,252.72,223.00,252.86,223.00,253.00,223.00,253.14,223.00,253.28,223.00,253.42,223.01,253.56,223.02,253.70,223.03,253.84,223.04,253.97,223.06,254.11,223.08,254.25,223.10,254.39,223.12,254.53,223.15,254.66,223.17,254.80,223.21,254.94,223.24,255.07,223.27,255.21,223.31,255.34,223.35,255.47,223.39,255.60,223.44,255.74,223.48,255.87,223.53,256.00,223.58,256.13,223.64,256.25,223.69,256.38,223.75,256.51,223.81,256.63,223.87,256.76,223.94,256.88,224.00,257.00,224.07,257.12,224.14,257.24,224.22,257.36,224.29,257.47,224.37,257.59,224.45,257.70,224.53,257.81,224.61,257.93,224.70,258.03,224.78,258.14,224.87,258.25,224.96,258.35,225.05,258.46,225.15,258.56,225.25,258.66,225.34,258.75,225.44,258.85,225.54,258.95,225.65,259.04,225.75,259.13,225.86,259.22,225.97,259.30,226.07,259.39,226.19,259.47,226.30,259.55,226.41,259.63,226.53,259.71,226.64,259.78,226.76,259.86,226.88,259.93,227.00,260.00,227.12,260.06,227.24,260.13,227.37,260.19,227.49,260.25,227.62,260.31,227.75,260.36,227.87,260.42,228.00,260.47,228.13,260.52,228.26,260.56,228.40,260.61,228.53,260.65,228.66,260.69,228.79,260.73,228.93,260.76,229.06,260.79,229.20,260.83,229.34,260.85,229.47,260.88,229.61,260.90,229.75,260.92,229.89,260.94,230.03,260.96,230.16,260.97,230.30,260.98,230.44,260.99,230.58,261.00,230.72,261.00,230.86"/>
	
</svg>

